<svg width="98" height="32" viewBox="0 0 98 32" fill="none" xmlns="http://www.w3.org/2000/svg">
<path d="M23.018 2.66666H26.4865V29.3333H23.018V2.66666Z" fill="#84A17D"/>
<path d="M0 7.66666H19.5495V14.3333H0V7.66666Z" fill="#84A17D"/>
<path d="M7.40993 17.6667H19.5495V24.3333H7.40993V17.6667Z" fill="#84A17D"/>
<path d="M40.0995 25.2471H36.4651L43.7339 4.93272H47.3407L54.6094 25.2471H50.8925L49.268 20.5506H41.7515L40.0995 25.2471ZM45.083 10.9909L42.7702 17.5493H48.2493L45.9365 10.9909C45.8631 10.713 45.7805 10.4351 45.6887 10.1572C45.597 9.87934 45.5419 9.63847 45.5235 9.43467C45.4868 9.61994 45.4226 9.8608 45.3308 10.1572C45.2574 10.4351 45.1748 10.713 45.083 10.9909Z" fill="#F4F5F6"/>
<path d="M59.4735 25.2471H56.142V4.57146H59.4735V25.2471Z" fill="#F4F5F6"/>
<path d="M62.4465 25.2471V11.5189H65.8055V25.2471H62.4465ZM64.0984 8.76774C63.5294 8.76774 63.043 8.5732 62.6392 8.18414C62.2537 7.77654 62.061 7.2856 62.061 6.71127C62.061 6.13695 62.2537 5.65526 62.6392 5.2662C63.043 4.87714 63.5294 4.68262 64.0984 4.68262C64.6675 4.68262 65.1447 4.87714 65.5302 5.2662C65.934 5.65526 66.1359 6.13695 66.1359 6.71127C66.1359 7.2856 65.934 7.77654 65.5302 8.18414C65.1447 8.5732 64.6675 8.76774 64.0984 8.76774Z" fill="#F4F5F6"/>
<path d="M67.9544 18.0773C67.9544 16.7434 68.2206 15.5577 68.753 14.5202C69.3032 13.4642 70.0654 12.6305 71.0381 12.0191C72.0108 11.4077 73.1398 11.1021 74.4244 11.1021C75.5812 11.1021 76.5724 11.3615 77.3981 11.8802C78.2239 12.3804 78.8026 13.0844 79.133 13.9922L78.7748 14.2979L79.0502 11.5189H82.1617V24.5523C82.1617 26.0715 81.8677 27.3869 81.2804 28.4985C80.7116 29.6286 79.8945 30.4901 78.8297 31.0829C77.7835 31.6943 76.5175 32 75.0303 32C73.0848 32 71.4877 31.472 70.2395 30.416C68.9913 29.36 68.257 27.9149 68.0372 26.0808H71.3963C71.5062 26.9701 71.8731 27.6648 72.4975 28.165C73.1398 28.6653 73.984 28.9153 75.0303 28.9153C76.1871 28.9153 77.1048 28.5726 77.7835 27.8871C78.4814 27.2202 78.8297 26.3124 78.8297 25.1637V21.7456L79.2151 22.1069C78.8847 22.9776 78.2795 23.6723 77.3981 24.1911C76.5175 24.7098 75.4984 24.9692 74.3423 24.9692C73.057 24.9692 71.9373 24.6728 70.9831 24.0799C70.0283 23.4871 69.2853 22.6719 68.753 21.6344C68.2206 20.5969 67.9544 19.4112 67.9544 18.0773ZM71.3407 17.9939C71.3407 18.7721 71.4877 19.4668 71.7817 20.0782C72.0936 20.671 72.5246 21.1435 73.0756 21.4955C73.6265 21.8475 74.2688 22.0235 75.0031 22.0235C75.7739 22.0235 76.4347 21.8567 76.985 21.5233C77.5544 21.1713 77.9855 20.6988 78.2795 20.106C78.5914 19.4946 78.7476 18.7906 78.7476 17.9939C78.7476 17.1973 78.6006 16.5118 78.3066 15.9375C78.0133 15.3447 77.5816 14.8815 77.0128 14.548C76.4619 14.2145 75.7924 14.0478 75.0031 14.0478C74.2502 14.0478 73.5987 14.2238 73.0477 14.5758C72.4975 14.9093 72.075 15.3725 71.7817 15.9653C71.4877 16.5581 71.3407 17.2343 71.3407 17.9939Z" fill="#F4F5F6"/>
<path d="M88.4463 25.2471H85.0872V11.5189H88.198L88.4735 13.2975C88.8959 12.612 89.4925 12.0747 90.2633 11.6857C91.0526 11.2966 91.9061 11.1021 92.8239 11.1021C94.5309 11.1021 95.8155 11.6115 96.6783 12.6305C97.5597 13.6495 98 15.0389 98 16.799V25.2471H94.6408V17.6049C94.6408 16.4563 94.3839 15.604 93.8701 15.0482C93.3562 14.4739 92.6583 14.1867 91.7776 14.1867C90.7314 14.1867 89.9143 14.5202 89.327 15.1872C88.7396 15.8541 88.4463 16.7434 88.4463 17.855V25.2471Z" fill="#F4F5F6"/>
</svg>
